<?xml version="1.0" encoding="UTF-8" standalone="no"?>
<!-- Uploaded to: SVG Repo, www.svgrepo.com, Generator: SVG Repo Mixer Tools -->

<svg
   fill="#000000"
   width="800px"
   height="800px"
   viewBox="0 0 32 32"
   id="icon"
   version="1.1"
   sodipodi:docname="icon-catalog-black.svg"
   inkscape:version="1.4 (e7c3feb1, 2024-10-09)"
   xmlns:inkscape="http://www.inkscape.org/namespaces/inkscape"
   xmlns:sodipodi="http://sodipodi.sourceforge.net/DTD/sodipodi-0.dtd"
   xmlns="http://www.w3.org/2000/svg"
   xmlns:svg="http://www.w3.org/2000/svg"
   xmlns:rdf="http://www.w3.org/1999/02/22-rdf-syntax-ns#"
   xmlns:cc="http://creativecommons.org/ns#"
   xmlns:dc="http://purl.org/dc/elements/1.1/">
  <sodipodi:namedview
     id="namedview3"
     pagecolor="#ffffff"
     bordercolor="#000000"
     borderopacity="0.25"
     inkscape:showpageshadow="2"
     inkscape:pageopacity="0.0"
     inkscape:pagecheckerboard="0"
     inkscape:deskcolor="#d1d1d1"
     inkscape:zoom="0.0325"
     inkscape:cx="384.61538"
     inkscape:cy="400"
     inkscape:window-width="1104"
     inkscape:window-height="245"
     inkscape:window-x="0"
     inkscape:window-y="38"
     inkscape:window-maximized="0"
     inkscape:current-layer="icon" />
  <defs
     id="defs1">
    <style
       id="style1">.cls-1{fill:none;}</style>
  </defs>
  <title
     id="title1">catalog</title>
  <path
     d="M26,2H8A2,2,0,0,0,6,4V8H4v2H6v5H4v2H6v5H4v2H6v4a2,2,0,0,0,2,2H26a2,2,0,0,0,2-2V4A2,2,0,0,0,26,2Zm0,26H8V24h2V22H8V17h2V15H8V10h2V8H8V4H26Z"
     transform="translate(0 0)"
     id="path1" />
  <rect
     x="14"
     y="8"
     width="8"
     height="2"
     id="rect1" />
  <rect
     x="14"
     y="15"
     width="8"
     height="2"
     id="rect2" />
  <rect
     x="14"
     y="22"
     width="8"
     height="2"
     id="rect3" />
  <rect
     id="_Transparent_Rectangle_"
     data-name="&lt;Transparent Rectangle&gt;"
     class="cls-1"
     width="32"
     height="32" />
  <metadata
     id="metadata3">
    <rdf:RDF>
      <cc:Work
         rdf:about="">
        <dc:title>catalog</dc:title>
      </cc:Work>
    </rdf:RDF>
  </metadata>
</svg>
