<svg width="24px" height="24px" viewBox="0 0 24 24" fill="none" xmlns="http://www.w3.org/2000/svg"><g id="SVGRepo_bgCarrier" stroke-width="0"></g><g id="SVGRepo_tracerCarrier" stroke-linecap="round" stroke-linejoin="round"></g><g id="SVGRepo_iconCarrier"> <path fill-rule="evenodd" clip-rule="evenodd" d="M19.5001 8.27355C19.5035 8.46127 19.4015 8.6351 19.236 8.72365L16.5982 10.1343L19.2196 11.4146C19.3883 11.497 19.4966 11.667 19.5001 11.8547C19.5035 12.0424 19.4015 12.2163 19.236 12.3048L16.598 13.7156L19.2195 14.9959C19.3882 15.0783 19.4966 15.2483 19.5 15.436C19.5035 15.6237 19.4015 15.7976 19.2359 15.8861L12.7074 19.3775C12.2655 19.6139 11.7346 19.6139 11.2927 19.3775L4.7642 15.8861C4.59864 15.7976 4.49663 15.6237 4.50008 15.436C4.50354 15.2483 4.61186 15.0783 4.78057 14.9959L7.40214 13.7156L4.76426 12.3048C4.59869 12.2163 4.49669 12.0424 4.50014 11.8547C4.50359 11.667 4.61192 11.497 4.78063 11.4146L7.40205 10.1343L4.76426 8.72365C4.59869 8.6351 4.49669 8.46127 4.50014 8.27355C4.50359 8.08582 4.61192 7.91586 4.78063 7.83346L11.3418 4.62897C11.7572 4.42609 12.243 4.42609 12.6584 4.62897L19.2196 7.83346C19.3883 7.91586 19.4966 8.08582 19.5001 8.27355ZM8.4898 14.2972L6.09799 15.4654L11.7643 18.4957C11.9116 18.5745 12.0885 18.5745 12.2358 18.4957L17.9021 15.4654L15.5104 14.2973L12.7075 15.7962C12.2655 16.0326 11.7347 16.0326 11.2927 15.7962L8.4898 14.2972ZM12.7075 12.2151L15.5105 10.716L17.9022 11.8841L12.2359 14.9144C12.0886 14.9932 11.9116 14.9932 11.7643 14.9144L6.09804 11.8841L8.48971 10.716L11.2927 12.2151C11.7347 12.4514 12.2655 12.4514 12.7075 12.2151ZM17.9022 8.30293L12.2195 5.52753C12.0811 5.4599 11.9191 5.4599 11.7807 5.52753L6.09804 8.30293L11.7643 11.3332C11.9116 11.412 12.0886 11.412 12.2359 11.3332L17.9022 8.30293Z" fill="#47495F"></path> </g></svg>