<?xml version="1.0" ?><!-- Uploaded to: SVG Repo, www.svgrepo.com, Generator: SVG Repo Mixer Tools -->
<svg width="32px" height="32x" viewBox="0 0 32 32" id="icons" version="1.0" xml:space="preserve" xmlns="http://www.w3.org/2000/svg" xmlns:xlink="http://www.w3.org/1999/xlink"><style type="text/css">
	.st0{fill:none;stroke:#152730;stroke-width:2;stroke-miterlimit:10;}
</style><rect class="st0" height="18" id="XMLID_27_" width="26" x="3" y="8"/><line class="st0" id="XMLID_79_" x1="7" x2="7" y1="5" y2="11"/><line class="st0" id="XMLID_80_" x1="13" x2="13" y1="5" y2="11"/><line class="st0" id="XMLID_82_" x1="19" x2="19" y1="5" y2="11"/><line class="st0" id="XMLID_83_" x1="25" x2="25" y1="5" y2="11"/><line class="st0" id="XMLID_122_" x1="13" x2="13" y1="13" y2="15"/><line class="st0" id="XMLID_123_" x1="19" x2="19" y1="13" y2="15"/><line class="st0" id="XMLID_124_" x1="25" x2="25" y1="13" y2="15"/><line class="st0" id="XMLID_128_" x1="7" x2="7" y1="17" y2="19"/><line class="st0" id="XMLID_129_" x1="13" x2="13" y1="17" y2="19"/><line class="st0" id="XMLID_144_" x1="7" x2="7" y1="21" y2="23"/><line class="st0" id="XMLID_143_" x1="13" x2="13" y1="21" y2="23"/><line class="st0" id="XMLID_86_" x1="19" x2="19" y1="17" y2="19"/><line class="st0" id="XMLID_145_" x1="19" x2="19" y1="21" y2="23"/><line class="st0" id="XMLID_130_" x1="25" x2="25" y1="17" y2="19"/><g id="XMLID_386_"/></svg>